<?xml version="1.0" encoding="utf-8"?>
<!-- Generator: Adobe Illustrator 14.0.0, SVG Export Plug-In . SVG Version: 6.00 Build 43363)  -->
<!DOCTYPE svg PUBLIC "-//W3C//DTD SVG 1.1//EN" "http://www.w3.org/Graphics/SVG/1.1/DTD/svg11.dtd">
<svg version="1.1" id="Layer_1" xmlns="http://www.w3.org/2000/svg" xmlns:xlink="http://www.w3.org/1999/xlink" x="0px" y="0px"
	 width="410.237px" height="411.811px" viewBox="0 0 410.237 411.811" enable-background="new 0 0 410.237 411.811"
	 xml:space="preserve">
<path fill="#264541" d="M183.495,247.692l0.352-1.699h4.883h29.848h7.404l-1.534,7.243l-14.925,70.474l-0.011,0.054l-0.013,0.053
	c-0.461,1.996-0.675,3.675-0.675,5.283c0,2.913,0.479,2.913,2.498,2.913c3.898,0,8.19-5.861,10.966-14.954l22.133-103.628
	l0.881-4.128l4.183-0.565l1.772-0.239c-2.76-26.945-4.624-54.561-4.655-80.154l-107.194,11c-0.385,37.051,3.04,76.39,7.551,111.45
	c7.004-3.872,14.618-5.837,22.702-5.837C175.518,244.957,180.061,245.997,183.495,247.692z"/>
<g>
	<path fill="#264541" d="M170.51,67.106l-3.21,15.405c-1.568,2.271-3.584,3-6.346,3c-6.197,0-8.661-6.162-8.661-13.378
		c0-12.892,8.362-28.054,16.575-28.054c4.778,0,5.151,4.459,5.151,5.757c0,2.027-1.418,6.081-3.285,6.648
		c1.418,1.784,3.957,2.108,5.151,2.108c3.808,0,5.227-3.162,5.227-7.459c0-7.864-6.944-10.864-13.887-10.864
		c-16.649,0-26.43,15.729-26.43,31.215c0,11.189,3.882,20.756,16.052,20.756c0.672,0,4.778-0.405,9.109-2.918l-2.987,14.513
		c-1.717,8.351-4.106,9.973-7.466,9.973c-3.136,0-4.704-2.675-4.704-5.514c0-3,1.792-6.162,5.226-6.162
		c1.493,0,2.613,0.405,4.479,2.108c0.299-1.216,0.448-2.351,0.448-3.243c0-5.189-4.331-5.432-7.317-5.432
		c-5.898,0-9.108,5.594-9.108,11.108c0,5.594,3.285,11.189,10.377,11.189c12.245,0,16.65-7.784,19.113-20.189l6.123-30.486
		L170.51,67.106z"/>
	<path fill="#264541" d="M211.575,66.62c0-3.082-1.793-6.081-5.152-6.081c-3.584,0-6.421,2.595-9.034,5.027l0.971-5.027h-10.751
		l-7.914,40.54h10.751l5.974-30.811c1.865-1.864,3.21-3.081,5.449-3.081c2.24,0,0.15,5.352,4.33,5.352
		C209.857,72.538,211.575,69.457,211.575,66.62z"/>
	<path fill="#264541" d="M326.924,60.539h-5.45l1.27-6.406c1.045-5.432,3.584-6.648,5.226-6.648c1.494,0,2.838,0.892,2.838,2.757
		c0,0.729-0.075,1.378-0.149,2.189h3.509c0.149-0.973,0.224-2.027,0.224-3.324c0-5.271-4.255-8.757-8.81-8.757
		c-4.928,0-11.349,2.189-13.588,13.783l-6.329,32.432h-0.018c-1.643,4.216-2.986,7.135-6.271,7.135c-2.24,0-2.986-1.378-2.986-3.405
		c0-4.541,3.583-14.351,3.583-20.918c0-6.486-3.509-9.162-8.287-9.162c-2.314,0-5.6,0.649-8.735,4.541l0.821-4.216h-10.751
		l-5.082,26.034c-3.731,4.618-7.313,8.182-13.209,8.182c-3.584,0-5.376-1.297-5.376-6.811c0-0.973,0.075-2.108,0.149-3.243
		c8.959-0.567,17.172-7.784,17.172-17.107c0-4.054-1.567-7.784-8.213-7.784c-14.802,0-19.827,18.275-20.142,27.911
		c-3.408,4.046-6.865,7.034-12.261,7.034c-3.584,0-5.376-1.297-5.376-6.811c0-0.973,0.074-2.108,0.149-3.243
		c8.96-0.567,17.172-7.784,17.172-17.107c0-4.054-1.567-7.784-8.212-7.784c-15.307,0-20.159,19.54-20.159,28.864
		c0,9.162,4.629,12.892,11.647,12.892c7.631,0,13.139-4.457,17.215-9.903c0.929,6.988,5.258,9.903,11.455,9.903
		c7.441,0,12.87-4.235,16.914-9.496l-1.759,9.01h10.751l5.077-26.026c1.12-4.054,3.136-7.459,5.823-7.459
		c1.792,0,2.688,1.459,2.688,4.135c0,5.189-3.359,15.162-3.359,20.676c0,4.621,2.314,9.162,8.811,9.162
		c2.475,0,5.649-0.666,8.704-4.417l-0.641,3.282c-7.093,2.351-12.842,4.703-12.842,12.162c0,5.271,4.256,8.757,8.81,8.757
		c4.928,0,11.125-2.189,13.364-13.784l8.586-43.783h5.525L326.924,60.539z M259.058,64.106c1.419,0,1.866,1.297,1.866,3.324
		c0,6.729-5.076,12.973-10.825,13.378C251.592,72.781,255.25,64.106,259.058,64.106z M230.388,64.106
		c1.419,0,1.866,1.297,1.866,3.324c0,6.729-5.076,12.973-10.826,13.378C222.922,72.781,226.581,64.106,230.388,64.106z
		 M301.465,107.808c-0.971,4.784-2.688,6.324-4.256,6.324c-1.643,0-2.986-1.541-2.986-2.676c0-4.378,3.509-6.648,8.213-8.351
		L301.465,107.808z"/>
	<path fill="#264541" d="M349.472,60.539c-3.584,0-6.421,2.595-9.034,5.027l0.971-5.027h-10.751l-7.914,40.54h10.751l5.973-30.811
		c1.867-1.864,3.211-3.081,5.45-3.081c2.24,0,0.149,5.352,4.331,5.352c3.658,0,5.375-3.081,5.375-5.918
		C354.624,63.538,352.832,60.539,349.472,60.539z"/>
	<path fill="#264541" d="M377.172,60.539l-5.077,26.026c-1.12,4.054-3.062,7.135-5.973,7.135c-1.718,0-2.24-1.703-2.24-3.567
		c0-0.649,0.075-1.378,0.224-2.027l5.376-27.567h-10.751l-5.077,26.026c-0.373,1.946-0.598,3.729-0.598,5.27
		c0,6.811,3.51,9.729,7.989,9.729c2.538,0,5.898-0.729,9.108-4.702l-0.746,3.567c-7.093,2.27-12.917,4.621-12.917,12.162
		c0,5.271,4.256,8.757,8.811,8.757c4.928,0,11.349-2.189,13.588-13.784l9.108-47.026H377.172z M367.989,107.808
		c-0.971,4.784-2.912,6.324-4.405,6.324c-1.643,0-2.986-1.541-2.986-2.676c0-4.378,3.584-6.729,8.287-8.432L367.989,107.808z"/>
</g>
<path fill="none" d="M155.012,330.02c0.334,0.322,0.899,0.42,2.418,0.42c0.62,0,1.411-0.2,2.283-0.587
	c-1.442-7.465-3.037-16.086-4.681-25.605c-1.248,5.712-1.965,11.322-1.965,16.025C153.067,327.766,154.688,329.707,155.012,330.02z"
	/>
<path fill="#264541" d="M168.765,316.953l9.764-45.971c-0.171-0.758-0.766-1.504-2.443-1.504c-5.075,0-10.908,6.526-15.604,17.458
	c-2.265,5.274-4.146,11.348-5.45,17.311c1.644,9.52,3.238,18.141,4.681,25.605C162.902,328.436,167.234,324.354,168.765,316.953z"/>
<path fill="none" d="M176.085,269.479c-5.075,0-10.908,6.526-15.604,17.458c-4.435,10.327-7.415,23.724-7.415,33.336
	c0,7.493,1.621,9.435,1.945,9.747c0.334,0.322,0.899,0.42,2.418,0.42c2.886,0,9.385-4.063,11.335-13.486l9.764-45.971
	C178.357,270.225,177.763,269.479,176.085,269.479z"/>
<path fill="none" d="M262.785,323.407l-0.021,0.094l-0.023,0.094c-0.285,1.14-0.442,2.315-0.442,3.311c0,1.896,0,3.534,4.985,3.534
	c4.718,0,11.2-9.649,15.041-22.947c-1.901-10.651-3.876-22.526-5.762-35.256c-1.093,0.225-2.125,0.505-2.871,0.798L262.785,323.407z
	"/>
<path fill="none" d="M228.109,318.199c-0.003,0.011-0.005,0.021-0.007,0.031c-3.111,10.351-8.705,19.453-16.78,19.453
	c-5.804,0-8.498-3.109-8.498-8.913c0-1.865,0.207-3.938,0.829-6.633l14.924-70.474h-29.848l-2.28,10.985v-1.451
	c0-6.011-4.975-10.57-16.789-10.57c-36.066,0-53.27,44.564-53.27,72.546c0,24.666,13.473,33.372,27.567,33.372
	c14.717,0,24.458-9.535,30.884-19.07c1.244,12.438,8.706,19.07,20.313,19.07c8.541,0,21.426-2.673,32.303-18.946
	c2.703,11.981,12.268,18.946,28.219,18.946c14.381,0,25.435-4.887,33.801-12.309c-1.406-6.633-3.132-15.107-5.004-25.033
	c-4.402,9.98-10.496,17.235-17.189,17.235c-7.462,0-10.985-3.523-10.985-9.534c0-1.451,0.207-3.109,0.622-4.768l11.4-52.648
	c1.376-1.626,4.486-2.645,7.376-3.2c-0.526-3.688-1.044-7.442-1.549-11.251c-0.979,0.531-2.019,1.128-3.133,1.808l2.099-9.838
	c-1.422-11.386-2.709-23.199-3.77-35.229l-19.057,2.575L228.109,318.199z M174.634,318.199c-2.487,12.022-11.193,18.24-17.204,18.24
	c-3.73,0-10.363-0.207-10.363-16.167c0-19.484,11.4-56.794,29.019-56.794c6.633,0,8.498,5.39,8.498,7.877L174.634,318.199z"/>
<path fill="#ECF7B1" d="M274.148,255.038c-0.351-2.651-0.696-5.327-1.034-8.03l-2.099,9.838
	C272.129,256.166,273.168,255.569,274.148,255.038z"/>
<path fill="#264541" d="M314.75,351.181c-4.298-5.542-6.397-12.766-6.415-22.083c-1.419,2.771-3.037,5.532-4.884,8.224
	c-3.659,5.333-7.868,9.839-12.552,13.516c1.335,6.078,2.144,9.442,2.144,9.442h34.83
	C322.389,358.402,317.997,355.366,314.75,351.181z"/>
<path fill="#264541" d="M284.809,295.778c-1.996-2.602-3.005-6.127-3.005-10.535c0-3.524,0.727-6.682,2.166-9.428
	c-0.834-2.245-2.055-4.057-3.421-4.057c-1.142,0-2.613,0.194-3.986,0.478c1.886,12.729,3.86,24.604,5.762,35.256
	C283.384,303.823,284.245,299.877,284.809,295.778z"/>
<path fill="#264541" d="M280.964,210.209l-11.62,1.57c1.061,12.029,2.348,23.843,3.77,35.229L280.964,210.209z"/>
<path fill="#264541" d="M288.612,203.121l-1.779,8.34l-7.422,34.787c3.115-0.936,5.819-1.206,8.601-1.206
	c11.755,0,25.778,5.192,29.435,28.504c5.34-3.575,12.548-11.316,21.756-27.175l1.475-2.54l2.91-0.394l30.677-4.146l6.494-0.877
	l0.303,6.546c1.397,30.149,2.663,45.869,3.501,56.271c0.665,8.258,1.066,13.242,1.066,19.454c0,23.06-12.748,35.011-27.361,39.593
	h43.777c0,0-21.86-128.202-21.064-229.936l-114.572,13c-0.214,20.625,0.752,41.798,2.43,62.449l11.324-1.53L288.612,203.121z"/>
<path fill="#264541" d="M340.999,306.668c0.563,0.442,1.154,0.982,1.724,1.637c-0.088-0.813-0.182-1.667-0.281-2.571
	c-0.619-5.627-1.467-13.333-2.368-25.227c-6.87,7.41-14.293,12.847-22.194,16.246c-0.397,3.381-1.091,7.758-2.302,12.665
	c3.862-3.977,8.812-6.132,13.683-6.132C334.263,303.286,338.103,304.393,340.999,306.668z"/>
<path fill="#264541" d="M262.764,323.501l-0.023,0.094c-0.285,1.14-0.442,2.315-0.442,3.311c0,1.896,0,3.534,4.985,3.534
	c0.576,0,1.179-0.148,1.799-0.425c-1.085-5.839-2.268-12.386-3.505-19.507l-2.793,12.899L262.764,323.501z"/>
<path fill="#264541" d="M332.923,333.065c1.259,1.105,2.712,1.105,3.591,1.105c3.298,0,6.017,0.001,6.818-7.766
	C340.953,329.806,337.208,332.291,332.923,333.065z"/>
<path fill="none" d="M281.804,285.572c0-3.524,0.727-6.682,2.166-9.428c-0.834-2.245-2.055-4.057-3.421-4.057
	c-2.051,0-5.175,0.615-6.857,1.275l-10.907,50.373l-0.021,0.094l-0.023,0.094c-0.285,1.14-0.442,2.315-0.442,3.311
	c0,1.896,0,3.534,4.985,3.534c6.02,0,14.913-15.708,17.525-34.661C282.813,293.506,281.804,289.98,281.804,285.572z"/>
<path fill="none" d="M256.92,322.138c-0.415,1.658-0.622,3.316-0.622,4.768c0,0.054,0.005,0.104,0.006,0.157
	c0.016-1.41,0.217-3.001,0.616-4.596l11.4-52.648c2.279-2.694,9.327-3.73,12.229-3.73c5.182,0,8.498,4.768,9.949,10.985
	c-1.658,2.073-2.694,4.768-2.694,8.499c0,4.145,1.036,6.84,3.316,8.291c-1.896,18.581-10.385,39.059-20.861,42.416
	c1.426,7.511,2.622,13.511,3.461,17.631c26.906-9.553,36.985-40.152,38.542-61.084c12.022-4.146,23.008-13.473,32.75-27.982
	c2.28,38.347,4.561,44.771,4.561,56.379c0,14.51-3.938,19.277-13.059,19.277c-7.877,0-12.022-5.804-12.022-15.546
	c1.036,2.073,3.524,2.694,5.597,2.694c5.389,0,9.949-4.353,9.949-9.327c0-6.011-3.73-8.706-10.778-8.706
	c-7.255,0-14.924,7.463-14.924,19.691c0,12.645,4.146,27.568,28.812,27.568c16.996,0,36.48-8.913,36.48-35.859
	c0-13.68-2.073-21.764-4.561-75.448l-30.677,4.146c-11.192,19.277-21.971,31.092-32.128,32.75
	c-1.036-23.008-10.57-31.092-24.251-31.092c-4.146,0-8.498,0.622-16.996,5.804l9.949-46.637l-29.082,3.93
	c3.101,28.821,7.156,56.639,11.006,80.11L256.92,322.138z"/>
<path fill="none" d="M157.43,336.769c-3.73,0-10.363-0.207-10.363-16.167c0-19.484,11.4-56.794,29.019-56.794
	c6.407,0,8.36,5.021,8.486,7.605l0.012-0.058c0-2.487-1.865-7.877-8.498-7.877c-10.223,0-18.345,12.564-23.369,26.915
	c-1.672-10.34-3.342-21.474-4.909-33.139c-21.196,13.273-31.417,44.683-31.417,66.248c0,24.666,13.473,33.372,27.567,33.372
	c7.988,0,14.501-2.82,19.823-6.915c-0.79-3.723-1.752-8.37-2.834-13.817C159.721,336.556,158.53,336.769,157.43,336.769z"/>
<path fill="none" d="M176.085,269.808c-5.075,0-10.908,6.526-15.604,17.458c-4.435,10.327-7.415,23.724-7.415,33.336
	c0,7.493,1.621,9.435,1.945,9.747c0.334,0.322,0.898,0.42,2.418,0.42c2.887,0,9.385-4.063,11.335-13.486l9.764-45.971
	C178.358,270.554,177.763,269.808,176.085,269.808z"/>
<path fill="none" d="M332.923,333.395c1.259,1.105,2.712,1.105,3.591,1.105c3.298,0,6.017,0.001,6.818-7.766
	C340.953,330.135,337.208,332.62,332.923,333.395z"/>
<path fill="none" d="M340.999,306.997c0.563,0.442,1.154,0.982,1.724,1.637c-0.088-0.813-0.182-1.667-0.281-2.571
	c-0.619-5.627-1.467-13.333-2.368-25.227c-6.87,7.41-14.293,12.847-22.194,16.246c-0.397,3.381-1.091,7.758-2.302,12.665
	c3.862-3.977,8.812-6.132,13.683-6.132C334.263,303.615,338.103,304.722,340.999,306.997z"/>
<path fill="#264541" d="M143.958,356.875c2.16,0,4.208-0.212,6.158-0.594c-2.54-11.109-9.872-44.307-16.58-85.536
	c-11.528,15.405-17.146,36.78-17.146,52.758C116.39,348.169,129.863,356.875,143.958,356.875z"/>
<path fill="#264541" d="M225.898,349.438c-4.813,4.979-10.245,8.616-16.173,10.841H240
	C233.983,358.029,229.2,354.363,225.898,349.438z"/>
<path fill="#264541" d="M228.109,318.528c-0.003,0.011-0.005,0.021-0.007,0.031c-3.111,10.351-8.705,19.453-16.78,19.453
	c-5.804,0-8.498-3.109-8.498-8.913c0-1.865,0.207-3.938,0.829-6.633l14.924-70.474h-29.848l-2.28,10.985v-1.451
	c0-6.011-4.975-10.57-16.789-10.57c-8.27,0-15.546,2.349-21.852,6.298c1.567,11.665,3.237,22.799,4.909,33.139
	c5.024-14.351,13.146-26.915,23.369-26.915c6.633,0,8.498,5.39,8.498,7.877l-0.012,0.058c0.004,0.091,0.012,0.187,0.012,0.271
	l-9.949,46.844c-2.032,9.823-8.215,15.767-13.688,17.614c1.083,5.447,2.044,10.095,2.834,13.817
	c4.482-3.448,8.124-7.796,11.061-12.155c1.244,12.438,8.706,19.07,20.313,19.07c8.541,0,21.426-2.673,32.303-18.946
	c2.703,11.981,12.268,18.946,28.219,18.946c6.721,0,12.711-1.072,18.044-2.965c-0.839-4.12-2.035-10.12-3.461-17.631
	c-0.977,0.313-1.969,0.489-2.976,0.489c-7.462,0-10.985-3.523-10.985-9.534c0-0.056,0.005-0.115,0.006-0.172
	c-0.001-0.054-0.006-0.104-0.006-0.157c0-1.451,0.207-3.109,0.622-4.768l5.968-27.56c-3.85-23.472-7.905-51.289-11.006-80.11
	l-1.595,0.216L228.109,318.528z"/>
<path fill="#264541" d="M172.36,350.367c-2.296,2.324-4.699,4.314-7.196,5.994c0.562,2.547,0.88,3.918,0.88,3.918h16.712
	C178.302,358.163,174.771,354.804,172.36,350.367z"/>
<path fill="#264541" d="M160.884,335.831c0.021,0.106,0.041,0.205,0.062,0.312c5.474-1.848,11.656-7.791,13.688-17.614l9.949-46.844
	c0-0.085-0.008-0.181-0.012-0.271l-9.937,46.786C172.594,328.06,166.373,334.008,160.884,335.831z"/>
<path fill="#264541" d="M267.284,336.439c-7.396,0-10.917-3.464-10.979-9.377c-0.001,0.057-0.006,0.116-0.006,0.172
	c0,6.011,3.523,9.534,10.985,9.534c1.007,0,1.999-0.176,2.976-0.489c-0.021-0.107-0.04-0.208-0.061-0.316
	C269.242,336.264,268.27,336.439,267.284,336.439z"/>
<path fill="#618973" d="M375.067,245.238l-30.677,4.146c-11.192,19.277-21.971,31.092-32.128,32.75
	c-1.036-23.008-10.57-31.092-24.251-31.092c-4.146,0-8.498,0.622-16.996,5.804l9.949-46.637l-30.677,4.146l-22.179,103.845
	c-0.003,0.011-0.005,0.021-0.007,0.031c-3.111,10.351-8.705,19.453-16.78,19.453c-5.804,0-8.498-3.109-8.498-8.913
	c0-1.865,0.207-3.938,0.829-6.633l14.924-70.474h-29.848l-2.28,10.985v-1.451c0-6.011-4.975-10.57-16.789-10.57
	c-36.066,0-53.27,44.564-53.27,72.546c0,24.666,13.473,33.372,27.567,33.372c14.717,0,24.458-9.535,30.884-19.07
	c1.244,12.438,8.706,19.07,20.313,19.07c8.541,0,21.426-2.673,32.303-18.946c2.703,11.981,12.268,18.946,28.219,18.946
	c40.626,0,54.721-38.969,56.586-64.049c12.022-4.146,23.008-13.473,32.75-27.982c2.28,38.347,4.561,44.771,4.561,56.379
	c0,14.51-3.938,19.277-13.059,19.277c-7.877,0-12.022-5.804-12.022-15.546c1.036,2.073,3.524,2.694,5.597,2.694
	c5.389,0,9.949-4.353,9.949-9.327c0-6.011-3.73-8.706-10.778-8.706c-7.255,0-14.924,7.463-14.924,19.691
	c0,12.645,4.146,27.568,28.812,27.568c16.996,0,36.48-8.913,36.48-35.859C379.627,307.007,377.554,298.923,375.067,245.238z
	 M174.634,318.199c-2.487,12.022-11.193,18.24-17.204,18.24c-3.73,0-10.363-0.207-10.363-16.167c0-19.484,11.4-56.794,29.019-56.794
	c6.633,0,8.498,5.39,8.498,7.877L174.634,318.199z M267.284,336.439c-7.462,0-10.985-3.523-10.985-9.534
	c0-1.451,0.207-3.109,0.622-4.768l11.4-52.648c2.279-2.694,9.327-3.73,12.229-3.73c5.182,0,8.498,4.768,9.949,10.985
	c-1.658,2.073-2.694,4.768-2.694,8.499c0,4.145,1.036,6.84,3.316,8.291C289.047,313.847,279.098,336.439,267.284,336.439z"/>
<path fill="none" d="M155.889,406.849c11.192,0,19.483-12.644,21.557-32.542c-6.012,2.487-11.814,3.316-17.411,3.316
	c-17.297,0-32.625-9.485-47.219-17.344H69.859C103.239,365.216,128.006,406.849,155.889,406.849z"/>
<path fill="#264541" d="M122.31,202.061c-2.694-0.207-5.389-0.414-8.291-0.414c-34.615,0-72.754,26.324-72.754,53.892
	c0,14.924,7.877,20.105,22.179,20.105c-0.207-1.865-2.901-3.523-2.901-14.095c0-22.178,10.985-37.724,29.019-45.186L58.677,360.005
	c1.658-0.207,3.108-0.207,4.767-0.207c2.175,0,4.312,0.17,6.415,0.481h42.957c-7.617-4.102-15.033-7.76-22.426-9.395L122.31,202.061
	z"/>
<path fill="#264541" d="M69.388,281.644h-5.944c-18.698,0-28.179-8.783-28.179-26.105c0-14.887,9.434-30.248,25.88-42.145
	c15.591-11.278,34.863-17.747,52.874-17.747c3.132,0,5.989,0.22,8.751,0.432l1.017,0.078
	c-7.945-84.738-3.337-169.904,48.134-166.472C170.347,17.086,81.877-31.887,31.21,70.78c-58.411,118.36,10.833,289.5,10.833,289.5
	h10.438l0.33-1.535L69.388,281.644z"/>
<path fill="#264541" d="M120.274,357.507c1.692,0.926,3.393,1.855,5.102,2.772h5.149c-11.116-4.627-20.135-15.841-20.135-36.776
	c0-16.436,5.353-35.541,13.97-49.859c2.416-4.016,5.063-7.626,7.907-10.846c-2.396-15.298-4.663-31.535-6.545-48.038L97.438,346.634
	C105.069,349.187,112.499,353.252,120.274,357.507z"/>
<path fill="#264541" d="M69.888,279.316l10.955-50.95c-9.401,7.64-14.301,18.907-14.301,33.183c0,6.345,1.019,8.446,1.692,9.836
	c0.446,0.922,1.003,2.068,1.173,3.597L69.888,279.316z"/>
<path fill="#618973" d="M90.896,351.156l31.92-148.824c-2.694-0.207-5.389-0.414-8.291-0.414c-34.615,0-72.753,26.324-72.753,53.892
	c0,14.924,7.876,20.105,22.178,20.105c-0.207-1.865-2.901-3.523-2.901-14.095c0-22.178,10.985-37.724,29.019-45.186L59.183,360.276
	c1.658-0.207,3.109-0.207,4.767-0.207c36.688,0,62.805,47.051,92.445,47.051c11.192,0,19.483-12.644,21.557-32.542
	c-6.011,2.487-11.815,3.316-17.411,3.316C134.216,377.895,112.453,355.924,90.896,351.156z"/>
</svg>
